<svg width="40" height="40" viewBox="0 0 40 40" fill="none" xmlns="http://www.w3.org/2000/svg">
<rect width="40" height="40" rx="20" fill="#B4EBF0"/>
<path d="M27.9388 17.5926H5.55566V18.6513H27.9388V17.5926Z" fill="#452B4E"/>
<path d="M27.9388 22.4323H5.55566V23.491H27.9388V22.4323Z" fill="#452B4E"/>
<path d="M27.9388 18.6513H17.8059V22.4322H27.9388V18.6513Z" fill="#452B4E"/>
<path d="M17.8563 18.6513H7.72339V22.4322H17.8563V18.6513Z" fill="#FAF3EB"/>
<path d="M6.93311 29.4444L34.5591 29.4444V28.3858L6.93311 28.3858V29.4444Z" fill="#FF545C"/>
<path d="M6.93311 24.5927L34.5591 24.5927V23.5341L6.93311 23.5341V24.5927Z" fill="#FF545C"/>
<path d="M6.9201 28.3796H19.4224V24.5987H6.9201V28.3796Z" fill="#FF545C"/>
<path d="M19.3847 28.3796H31.887V24.5987H19.3847V28.3796Z" fill="#FAF3EB"/>
<path d="M9.01252 17.4444L30.9385 17.4444L30.9385 16.4073L9.01252 16.4073L9.01252 17.4444Z" fill="#64D69A"/>
<path d="M9.01252 12.7036L30.9385 12.7036L30.9385 11.6665L9.01252 11.6665L9.01252 12.7036Z" fill="#64D69A"/>
<path d="M9.01254 16.358L18.9385 16.358L18.9385 12.6543L9.01254 12.6543L9.01254 16.358Z" fill="#64D69A"/>
<path d="M18.9386 16.358L28.8645 16.358L28.8645 12.6543L18.9386 12.6543L18.9386 16.358Z" fill="#FAF3EB"/>
</svg>
