<svg width="72" height="72" viewBox="0 0 72 72" fill="none" xmlns="http://www.w3.org/2000/svg">
<rect width="72" height="72" rx="36" fill="#B4EBF0"/>
<path d="M33.2905 28.625C39.3571 27.1889 43.1138 21.0943 41.6813 15.0124C40.2488 8.93043 34.1696 5.16424 28.103 6.60036C22.0364 8.03648 18.2797 14.1311 19.7122 20.213C21.1447 26.295 27.2239 30.0612 33.2905 28.625Z" fill="#FF545C"/>
<path d="M57.2669 29.9493C58.8763 26.8541 57.7424 22.9948 54.7795 21.3135L49 32.5476C51.9629 34.2289 55.6574 33.0444 57.2669 29.9493Z" stroke="#452B4E" stroke-miterlimit="10"/>
<path d="M61 59.8057L56.256 52.7492C53.3798 54.6534 49.5323 53.9066 47.5899 51.0691C45.6848 48.1943 46.4319 44.3487 49.2708 42.4073L44.5268 35.3135C37.7657 39.8684 35.9728 49.0157 40.4926 55.7734C45.0124 62.5312 54.2389 64.3606 61 59.8057Z" fill="#9DA2FF"/>
<path d="M33.7342 58.6849L34.7975 49.9667L23.0633 44.751L17.3291 51.3753L10 48.1773L35.6329 20.8425L43.9873 24.5354L41.1013 61.959L33.7342 58.6849ZM35.7088 43.5327C36.6202 35.614 37.1519 31.1597 37.2658 30.1318C37.3797 29.1039 37.5316 28.3044 37.6456 27.6953C36.3164 29.3704 32.8987 33.4059 27.3164 39.8018L35.7088 43.5327Z" fill="#FFBD66"/>
</svg>
