<svg width="72" height="72" viewBox="0 0 72 72" fill="none" xmlns="http://www.w3.org/2000/svg">
<rect width="72" height="72" rx="36" fill="#FEE4C3"/>
<path d="M35.6966 60.3932C49.3362 60.3932 60.3932 49.3362 60.3932 35.6966C60.3932 22.057 49.3362 11 35.6966 11C22.057 11 11 22.057 11 35.6966C11 49.3362 22.057 60.3932 35.6966 60.3932Z" fill="white"/>
<path d="M37.699 23.5607C37.699 23.5607 42.9174 24.2888 45.4053 21.801C46.9223 20.284 50.5631 16.8252 55.2354 20.5874C50.6844 14.7621 43.6456 11 35.6966 11C32.4805 11 29.4466 11.6068 26.6553 12.699C26.6553 12.8811 25.3204 22.7718 37.699 23.5607Z" fill="#FFBD66"/>
<path d="M51.0485 32.4806C48.3179 37.3956 47.165 38.6699 43.2815 35.6966C39.398 32.7233 31.5703 49.7136 31.5703 49.7136C31.5703 49.7136 29.6286 55.7815 40.1868 54.2039C40.1868 54.2039 47.2257 50.6845 49.7742 49.5315C52.3228 48.3786 53.1116 53.2937 53.1116 53.2937C57.6626 48.8034 60.4538 42.6141 60.4538 35.7573C60.4538 34.665 60.3932 33.6335 60.2718 32.5413C60.2111 32.4806 53.7791 27.6262 51.0485 32.4806Z" fill="#FFBD66"/>
<path d="M19.3738 37.5776C18.6456 32.4806 14.5801 30.2961 11.7888 29.3859C11.3034 31.3883 11 33.5121 11 35.6966C11 39.5194 11.8495 43.0995 13.4272 46.3155C16.8252 44.2524 19.9199 41.2791 19.3738 37.5776Z" fill="#FFBD66"/>
<path d="M40.6557 46.6136C45.3845 44.6603 47.6301 39.254 45.6713 34.5384C43.7125 29.8227 38.2911 27.5834 33.5623 29.5367C28.8335 31.4901 26.5879 36.8963 28.5467 41.612C30.5055 46.3276 35.9269 48.5669 40.6557 46.6136Z" fill="#7FD5DE"/>
<path d="M37.1139 27.578C31.3217 27.578 26.5952 32.2913 26.5952 38.0673C26.5952 43.8896 31.3217 48.6029 37.1139 48.6029C42.9061 48.6029 47.6789 43.8896 47.6789 38.0673C47.6789 32.2913 42.9525 27.578 37.1139 27.578Z" stroke="#452B4E" stroke-miterlimit="10"/>
<path d="M44.5744 38.0673C44.5744 33.9547 41.2381 30.6277 37.114 30.6277" stroke="#FAF3EB" stroke-miterlimit="10"/>
<path d="M43.4622 46.4772L45.501 49.6656" stroke="#452B4E" stroke-miterlimit="10"/>
<path d="M56.3906 65.9772C55.4175 66.6241 54.0273 66.3931 53.3786 65.3765L44.7598 52.6692C44.111 51.6988 44.3427 50.3125 45.3622 49.6656C46.3353 49.0187 47.7254 49.2497 48.3741 50.2663L56.9929 62.9737C57.6417 63.9441 57.41 65.2841 56.3906 65.9772Z" fill="#452B4E"/>
</svg>
