<svg width="46" height="66" viewBox="0 0 46 66" fill="none" xmlns="http://www.w3.org/2000/svg">
<g clip-path="url(#clip0_31_148)">
<path d="M11.3219 23.7087L29.3735 15.9393L46 55.5072L32.6197 49.0194L26.1274 58.9514L11.3219 23.7087Z" fill="#7E80CB"/>
<path d="M14.1721 18.6626L32.3821 26.1116L16.4682 66L11.5594 51.8228L0 54.1456L14.1721 18.6626Z" fill="#9DA2FF"/>
<path d="M21.2978 42.2913C32.8416 42.2913 42.1997 32.824 42.1997 21.1456C42.1997 9.46722 32.8416 0 21.2978 0C9.75397 0 0.395874 9.46722 0.395874 21.1456C0.395874 32.824 9.75397 42.2913 21.2978 42.2913Z" fill="#FFBD66"/>
<path d="M21.2978 39.4078C31.2675 39.4078 39.3495 31.2316 39.3495 21.1457C39.3495 11.0598 31.2675 2.88354 21.2978 2.88354C11.3282 2.88354 3.24622 11.0598 3.24622 21.1457C3.24622 31.2316 11.3282 39.4078 21.2978 39.4078Z" stroke="white" stroke-miterlimit="10"/>
<path d="M22.8811 11.9344L24.3063 16.2596C24.5438 16.9805 25.1772 17.4611 25.8898 17.4611H30.4027C32.0653 17.4611 32.6987 19.5436 31.3527 20.5048L27.7108 23.148C27.1565 23.5485 26.8398 24.3494 27.0774 25.0703L28.5025 29.3955C28.9775 30.9975 27.2357 32.279 25.8898 31.3179L22.2478 28.6747C21.6935 28.2742 20.9018 28.2742 20.2684 28.6747L16.6264 31.2378C15.2805 32.1989 13.5386 30.9174 14.0137 29.3154L15.4388 24.9902C15.6763 24.2693 15.4388 23.5485 14.8054 23.0679L11.1634 20.4247C9.81747 19.4635 10.53 17.381 12.1135 17.381H16.6264C17.339 17.381 17.9724 16.9004 18.2099 16.1795L19.635 11.8543C20.1892 10.3324 22.3269 10.3324 22.8811 11.9344Z" stroke="#452B4E" stroke-miterlimit="10"/>
</g>
<defs>
<clipPath id="clip0_31_148">
<rect width="46" height="66" fill="white"/>
</clipPath>
</defs>
</svg>
