<svg width="152" height="120" viewBox="0 0 152 120" fill="none" xmlns="http://www.w3.org/2000/svg">
<mask id="mask0_1_792" style="mask-type:alpha" maskUnits="userSpaceOnUse" x="0" y="0" width="152" height="120">
<rect width="151.489" height="120" fill="#C4C4C4"/>
</mask>
<g mask="url(#mask0_1_792)">
<path d="M25.9415 87.2846C26.7953 88.6503 28.2923 89.6863 29.8361 90.0476C30.0597 90.226 30.3236 90.4391 30.6103 90.6578C29.0374 90.7061 27.4927 91.2273 26.1829 92.0769C27.79 92.2823 29.5643 91.8185 30.834 90.8363C31.2985 91.2221 31.8491 91.6539 32.457 92.149C32.738 92.3908 33.0248 92.6096 33.323 92.8803C33.4664 92.9896 33.604 93.1221 33.7416 93.2545C31.4625 93.4942 29.3201 94.5525 27.5791 96.0544C29.8867 96.0916 32.2931 95.0502 33.8391 93.3525C33.9595 93.4561 34.1029 93.5655 34.2176 93.6922C34.8599 94.245 35.5194 94.8266 36.2132 95.4658C36.5344 95.7422 36.8498 96.0416 37.1651 96.3411C34.4154 96.4141 31.7738 97.4212 29.5218 99.0161C32.3112 99.3698 35.3431 98.4602 37.4633 96.6117C38.2145 97.3143 38.9829 98.0457 39.7398 98.8232C39.734 98.8463 39.757 98.8521 39.7512 98.8751L39.757 98.8521C40.0322 99.117 40.2845 99.3762 40.554 99.6641C40.5711 99.693 40.6113 99.7275 40.6342 99.7332C37.5288 99.6683 34.2841 100.942 32.1462 103.153C35.3264 103.114 38.3758 101.939 40.9381 100.079C42.2339 101.432 43.4149 102.757 44.4525 103.973C44.5271 104.065 44.6245 104.163 44.6933 104.278C40.9514 103.539 36.7657 104.479 33.7782 106.773C37.6236 107.293 41.5108 106.376 44.9226 104.531C45.3182 104.998 45.6908 105.459 46.0233 105.885C46.264 106.191 46.4876 106.467 46.7111 106.744C46.9117 107.014 47.1123 107.285 47.3187 107.533C47.3187 107.533 47.3417 107.539 47.3359 107.562C43.7198 107.296 39.8723 108.639 37.2749 111.128C40.9601 111.215 44.5492 109.93 47.5537 107.861C48.9236 109.699 49.6686 110.817 49.8063 110.851C49.8752 110.869 49.4743 110.033 48.5402 108.598C50.7411 106.525 52.1047 103.703 52.6763 100.732C50.2806 102.511 48.6528 105.414 48.3798 108.362C48.2193 108.126 48.0588 107.889 47.9041 107.63L47.9328 107.613L47.9099 107.607C47.8869 107.601 47.8927 107.578 47.8697 107.573C47.6921 107.307 47.4915 107.037 47.2909 106.766C47.0903 106.495 46.8495 106.19 46.6317 105.89C46.563 105.775 46.4655 105.677 46.3738 105.556C48.7135 102.537 49.9002 98.7631 50.0767 94.9334C47.4505 97.538 45.925 101.398 46.0241 105.101C45.726 104.732 45.4108 104.335 45.0955 103.937C44.6598 103.436 44.2299 102.912 43.7598 102.353C45.5431 98.9248 46.024 94.9505 45.4657 91.1333C43.3556 94.2102 42.5703 98.3291 43.3928 101.967C42.6877 101.178 41.9423 100.354 41.1224 99.5365C40.7554 99.1506 40.3827 98.7878 40.033 98.4307C41.5974 95.6833 42.1349 92.4586 41.8686 89.3274C40.0232 91.7349 39.1643 94.9773 39.5628 97.9699C38.6969 97.1406 37.8253 96.3344 37.011 95.5916C37.8463 92.9317 37.5513 89.8178 36.1763 87.4147C35.4904 89.9648 35.6768 92.6348 36.4949 95.1194C35.8125 94.532 35.1759 93.9562 34.5451 93.4553C34.2009 93.1732 33.897 92.9256 33.5701 92.6723C33.4267 92.5629 33.3063 92.4593 33.1801 92.3787C33.997 90.7685 33.9533 88.7961 33.0079 87.2114C32.323 88.7811 32.3326 90.4997 32.8531 92.1254C32.79 92.0851 32.7098 92.016 32.6467 91.9757C32.033 91.5037 31.4766 91.0949 31.0063 90.7323C31.0063 90.7323 31.0063 90.7323 30.9834 90.7265C30.8973 90.6805 30.84 90.6171 30.7539 90.5711C30.9165 88.9445 30.4477 87.2092 29.4675 85.9591C29.3625 87.4529 29.7167 88.9635 30.3811 90.3063C30.2148 90.1912 30.0714 90.0818 29.9222 89.9955C28.9651 88.6531 27.5023 87.7727 25.9415 87.2846Z" fill="#452B4E"/>
<path d="M113.328 137.223L43.704 119.826L66.843 27.2202L136.467 44.617L113.328 137.223Z" fill="#FF9980"/>
<path d="M109.047 131.628L50.113 116.903C49.407 116.727 48.9454 116.001 49.1312 115.257L69.4834 33.8046C69.6607 33.0949 70.3843 32.6293 71.1239 32.8141L130.058 47.5396C130.764 47.716 131.225 48.4418 131.039 49.1853L110.687 130.638C110.468 131.373 109.753 131.805 109.047 131.628Z" fill="#FAF3EB"/>
<path d="M107.355 35.4757C107.381 35.3743 107.398 35.3067 107.423 35.2054C108.191 32.2734 106.396 29.3111 103.471 28.5803C100.546 27.8495 97.6014 29.6273 96.8667 32.5677C96.8414 32.6691 96.8245 32.7367 96.7992 32.8381L89.0332 30.8976L87.0065 39.0091L113.128 45.536L115.155 37.4246L107.355 35.4757Z" fill="#3E2646"/>
<path d="M102.592 36.9178C104.258 36.6625 105.406 35.0992 105.156 33.4259C104.906 31.7527 103.353 30.6032 101.687 30.8585C100.021 31.1137 98.8732 32.6771 99.1231 34.3503C99.373 36.0235 100.926 37.173 102.592 36.9178Z" fill="#FAF3EB"/>
<path d="M119.836 62.1498L87.5617 54.0856C87.36 54.0352 87.2341 53.8242 87.2848 53.6214C87.3355 53.4186 87.5458 53.2916 87.7475 53.342L120.022 61.4062C120.223 61.4566 120.349 61.6676 120.298 61.8704C120.248 62.0732 120.037 62.2002 119.836 62.1498Z" fill="#5FCBD6"/>
<path d="M119.413 63.8391L87.1386 55.7749C86.9369 55.7245 86.811 55.5136 86.8617 55.3108C86.9124 55.108 87.1227 54.981 87.3244 55.0314L119.598 63.0956C119.8 63.146 119.926 63.357 119.875 63.5597C119.825 63.7625 119.614 63.8895 119.413 63.8391Z" fill="#5FCBD6"/>
<path d="M118.991 65.5288L86.7165 57.4647C86.5148 57.4143 86.3889 57.2033 86.4396 57.0005C86.4902 56.7977 86.7006 56.6707 86.9023 56.7211L119.176 64.7853C119.378 64.8357 119.504 65.0467 119.453 65.2495C119.403 65.4523 119.192 65.5792 118.991 65.5288Z" fill="#5FCBD6"/>
<path d="M118.568 67.2186L86.2938 59.1544C86.0921 59.104 85.9662 58.893 86.0168 58.6903C86.0675 58.4875 86.2778 58.3605 86.4795 58.4109L118.754 66.4751C118.955 66.5255 119.081 66.7364 119.03 66.9392C118.98 67.142 118.769 67.269 118.568 67.2186Z" fill="#5FCBD6"/>
<path d="M115.832 78.1695L83.5582 70.1054C83.3565 70.055 83.2306 69.844 83.2813 69.6412C83.3319 69.4384 83.5422 69.3114 83.744 69.3618L116.018 77.426C116.22 77.4764 116.346 77.6874 116.295 77.8902C116.244 78.0929 116.034 78.2199 115.832 78.1695Z" fill="#5FCBD6"/>
<path d="M115.41 79.8593L83.1358 71.7951C82.9341 71.7447 82.8082 71.5337 82.8589 71.3309C82.9096 71.1281 83.1199 71.0011 83.3216 71.0515L115.596 79.1157C115.797 79.1661 115.923 79.3771 115.873 79.5799C115.822 79.7827 115.612 79.9097 115.41 79.8593Z" fill="#5FCBD6"/>
<path d="M114.988 81.549L82.7136 73.4848C82.5118 73.4344 82.386 73.2235 82.4366 73.0207C82.4873 72.8179 82.6976 72.6909 82.8993 72.7413L115.173 80.8055C115.375 80.8559 115.501 81.0669 115.45 81.2696C115.4 81.4724 115.189 81.5994 114.988 81.549Z" fill="#5FCBD6"/>
<path d="M114.565 83.2388L82.2914 75.1746C82.0897 75.1242 81.9639 74.9132 82.0145 74.7104C82.0652 74.5076 82.2755 74.3807 82.4772 74.4311L114.751 82.4952C114.953 82.5456 115.079 82.7566 115.028 82.9594C114.977 83.1622 114.767 83.2892 114.565 83.2388Z" fill="#5FCBD6"/>
<path d="M111.829 94.1897L79.5549 86.1255C79.3532 86.0751 79.2273 85.8641 79.278 85.6613C79.3286 85.4585 79.5389 85.3316 79.7407 85.382L112.015 93.4461C112.216 93.4965 112.342 93.7075 112.292 93.9103C112.241 94.1131 112.031 94.2401 111.829 94.1897Z" fill="#5FCBD6"/>
<path d="M111.407 95.8802L79.1326 87.816C78.9309 87.7656 78.805 87.5546 78.8557 87.3518C78.9064 87.1491 79.1167 87.0221 79.3184 87.0725L111.592 95.1366C111.794 95.187 111.92 95.398 111.869 95.6008C111.819 95.8036 111.608 95.9306 111.407 95.8802Z" fill="#5FCBD6"/>
<path d="M110.984 97.57L78.7104 89.5058C78.5087 89.4554 78.3828 89.2444 78.4335 89.0416C78.4841 88.8388 78.6945 88.7118 78.8962 88.7622L111.17 96.8264C111.372 96.8768 111.498 97.0878 111.447 97.2906C111.396 97.4934 111.186 97.6204 110.984 97.57Z" fill="#5FCBD6"/>
<path d="M110.562 99.2597L78.2883 91.1955C78.0866 91.1451 77.9607 90.9342 78.0114 90.7314C78.062 90.5286 78.2723 90.4016 78.4741 90.452L110.748 98.5162C110.95 98.5666 111.076 98.7776 111.025 98.9803C110.974 99.1831 110.764 99.3101 110.562 99.2597Z" fill="#5FCBD6"/>
<path d="M107.826 110.209L75.5521 102.145C75.3503 102.095 75.2245 101.884 75.2751 101.681C75.3258 101.478 75.5361 101.351 75.7379 101.402L108.012 109.466C108.214 109.516 108.339 109.727 108.289 109.93C108.238 110.133 108.028 110.26 107.826 110.209Z" fill="#5FCBD6"/>
<path d="M107.403 111.9L75.1295 103.835C74.9277 103.785 74.8019 103.574 74.8525 103.371C74.9032 103.168 75.1135 103.041 75.3152 103.092L107.589 111.156C107.791 111.206 107.917 111.417 107.866 111.62C107.816 111.823 107.605 111.95 107.403 111.9Z" fill="#5FCBD6"/>
<path d="M106.981 113.589L74.7072 105.525C74.5055 105.475 74.3796 105.264 74.4303 105.061C74.481 104.858 74.6913 104.731 74.893 104.782L107.167 112.846C107.369 112.896 107.495 113.107 107.444 113.31C107.393 113.513 107.183 113.64 106.981 113.589Z" fill="#5FCBD6"/>
<path d="M106.559 115.279L74.2846 107.215C74.0829 107.164 73.957 106.953 74.0077 106.751C74.0584 106.548 74.2687 106.421 74.4704 106.471L106.744 114.535C106.946 114.586 107.072 114.797 107.021 115C106.971 115.202 106.76 115.329 106.559 115.279Z" fill="#5FCBD6"/>
<path d="M69.521 119.849L72.719 116.913L78.0173 122.726L74.8194 125.661C73.2036 127.125 70.732 127.01 69.271 125.424C67.8184 123.804 67.9389 121.321 69.521 119.849Z" fill="#FF805D"/>
<path d="M73.0977 116.541L107.088 85.5718L112.387 91.3842L78.396 122.354L73.0977 116.541Z" fill="#FFBD66"/>
<path d="M116.113 82.62L107.089 85.5719L112.387 91.3842L116.113 82.62Z" fill="#FAF3EB"/>
<path d="M115 85.2145L116.113 82.6199L113.43 83.4936L115 85.2145Z" fill="#452B4E"/>
<path d="M75.5998 124.945L78.3934 122.383L73.1193 116.576L70.3256 119.139L75.5998 124.945Z" fill="#5FCBD6"/>
<path d="M75.8353 125.197L76.7836 124.327L71.0427 118.007L70.0944 118.877L75.8353 125.197Z" fill="#5FCBD6"/>
<path d="M120.47 95.9177L128.811 87.6962C128.811 87.6962 131.697 85.7241 130.977 89.8893L128.728 93.6004L134.63 93.5669C134.63 93.5669 138.379 93.8574 137.727 98.3265C137.727 98.3265 137.104 99.1044 137.422 100.261C137.74 101.418 137.562 102.702 136.957 102.982C136.36 103.227 137.048 104.333 137.048 104.333C137.048 104.333 138.75 108.528 134.663 109.734C130.584 110.905 125.272 109.434 125.272 109.434L122.665 110.578C122.665 110.578 115.459 111.111 115.399 105.064C115.338 99.0162 117.316 97.1046 120.47 95.9177Z" fill="#FFBD66"/>
<path d="M134.284 94.8085L127.524 95.5611C127.524 95.5611 125.555 97.0082 127.696 99.1591L134.792 99.3521" stroke="#452B4E" stroke-miterlimit="10"/>
<path d="M127.696 99.1593C127.696 99.1593 124.625 101.013 128.162 103.585L134.846 103.423" stroke="#452B4E" stroke-miterlimit="10"/>
<path d="M127.779 107.547C127.779 107.547 125.176 104.814 128.187 103.627" stroke="#452B4E" stroke-miterlimit="10"/>
<path d="M74.9618 58.7651C77.9325 59.5074 80.9457 57.6881 81.692 54.7015C82.4382 51.715 80.6349 48.6921 77.6642 47.9499C74.6934 47.2076 71.6802 49.0269 70.934 52.0135C70.1877 55 71.991 58.0229 74.9618 58.7651Z" fill="#64D69A"/>
<path d="M73.4385 52.855L75.0163 55.26L79.7445 52.2043" stroke="#452B4E" stroke-miterlimit="10"/>
<path d="M71.077 74.3125C74.0478 75.0547 77.061 73.2354 77.8072 70.2488C78.5535 67.2623 76.7501 64.2395 73.7794 63.4972C70.8087 62.7549 67.7954 64.5742 67.0492 67.5608C66.303 70.5473 68.1063 73.5702 71.077 74.3125Z" fill="#64D69A"/>
<path d="M69.5536 68.4017L71.1314 70.8068L75.8596 67.7511" stroke="#452B4E" stroke-miterlimit="10"/>
<path d="M67.1927 89.8592C70.1635 90.6015 73.1767 88.7822 73.9229 85.7956C74.6692 82.809 72.8659 79.7862 69.8951 79.0439C66.9244 78.3016 63.9112 80.121 63.1649 83.1075C62.4187 86.0941 64.222 89.1169 67.1927 89.8592Z" fill="#64D69A"/>
<path d="M65.6779 83.9147L67.2472 86.3535L71.9754 83.2978" stroke="#452B4E" stroke-miterlimit="10"/>
<path d="M63.308 105.406C66.2787 106.148 69.2919 104.329 70.0382 101.342C70.7844 98.3558 68.9811 95.333 66.0104 94.5907C63.0396 93.8484 60.0264 95.6677 59.2802 98.6543C58.5339 101.641 60.3372 104.664 63.308 105.406Z" fill="#64D69A"/>
<path d="M61.793 99.462L63.3708 101.867L68.0905 98.8451" stroke="#452B4E" stroke-miterlimit="10"/>
</g>
</svg>
