<svg width="72" height="72" viewBox="0 0 72 72" fill="none" xmlns="http://www.w3.org/2000/svg">
<rect width="72" height="72" rx="36" fill="#CED0FF"/>
<path d="M17.3345 13.0551L15.8777 54.5264L14.5827 54.494L14 50.4796L15.3273 12.9903L17.3345 13.0551Z" fill="#9DA2FF"/>
<path d="M14.874 54.4941L15.2301 57.1812L15.6186 54.5265L14.874 54.4941Z" fill="#452B4E"/>
<path d="M14.4855 50.0588C14.5179 49.3466 15.133 48.7639 15.8452 48.7962C16.5574 48.8286 17.1402 49.4437 17.1078 50.1559C17.0754 50.8682 16.4603 51.4509 15.7481 51.4185C15.0035 51.3862 14.4531 50.8034 14.4855 50.0588Z" fill="#FF545C"/>
<path d="M18.3381 12.8932L34.7518 50.9976L35.9497 50.4796L35.0432 46.53L20.2158 12.0838L18.3381 12.8932Z" fill="#9DA2FF"/>
<path d="M35.6907 50.6092L36.3382 53.2315L34.9785 50.9006L35.6907 50.6092Z" fill="#452B4E"/>
<path d="M31.9942 37.5527L31.3103 37.8472L32.616 40.8802L33.2999 40.5858L31.9942 37.5527Z" fill="#FF545C"/>
<path d="M17.141 5.00002L15.644 5.27269L16.5897 10.4642L18.0866 10.1915L17.141 5.00002Z" fill="#452B4E"/>
<path d="M20.4748 11.7601L19.8597 14.6414L20.7985 19.7565L17.4316 20.3716L16.5251 15.2565L14.9388 12.7637C14.6474 11.2421 15.6834 9.78524 17.205 9.49388C18.7266 9.20251 20.1834 10.2385 20.4748 11.7601Z" fill="#FF545C"/>
<path d="M16.9462 12.3104C16.8814 11.8896 17.1404 11.5011 17.5613 11.4039C17.9821 11.3392 18.3706 11.5982 18.4677 12.019C18.5325 12.4399 18.2735 12.8284 17.8526 12.9255C17.3994 13.0226 17.0109 12.7313 16.9462 12.3104Z" fill="#452B4E"/>
<path d="M48.2081 64.6164L24.5901 55.9262C24.1359 55.7445 23.8937 55.2298 24.0451 54.7756L36.6413 20.5901C36.823 20.1359 37.3377 19.8937 37.7919 20.0451L61.4099 28.7353C61.8641 28.9169 62.1063 29.4317 61.9549 29.8859L49.3587 64.0714C49.177 64.5559 48.6623 64.7981 48.2081 64.6164Z" fill="#FF545C"/>
<path d="M58.0979 31.0987L38.3784 23.8363L35.6472 31.2524L55.3666 38.5148L58.0979 31.0987Z" fill="#452B4E"/>
<path d="M40.2621 34.9967L34.9771 33.0503L33.0306 38.3353L38.3157 40.2817L40.2621 34.9967Z" fill="#FAF3EB"/>
<path d="M47.465 37.6611L42.1799 35.7147L40.2335 40.9998L45.5186 42.9462L47.465 37.6611Z" fill="#FAF3EB"/>
<path d="M54.6784 40.2971L49.3933 38.3507L47.4469 43.6358L52.7319 45.5822L54.6784 40.2971Z" fill="#FAF3EB"/>
<path d="M37.6007 42.2013L32.3157 40.2549L30.3693 45.54L35.6543 47.4864L37.6007 42.2013Z" fill="#FAF3EB"/>
<path d="M44.8036 44.8659L39.5186 42.9195L37.5721 48.2045L42.8572 50.1509L44.8036 44.8659Z" fill="#FAF3EB"/>
<path d="M52.0065 47.5303L46.7214 45.5839L44.775 50.8689L50.0601 52.8153L52.0065 47.5303Z" fill="#FAF3EB"/>
<path d="M34.9291 49.4345L29.644 47.4881L27.6976 52.7731L32.9827 54.7195L34.9291 49.4345Z" fill="#FAF3EB"/>
<path d="M42.1425 52.0706L36.8574 50.1241L34.911 55.4092L40.1961 57.3556L42.1425 52.0706Z" fill="#FAF3EB"/>
<path d="M49.3453 54.735L44.0603 52.7886L42.1139 58.0737L47.3989 60.0201L49.3453 54.735Z" fill="#FAF3EB"/>
<path d="M59.2086 62.5775L64 50L43 56.3824L59.2086 62.5775ZM60.0508 53.7433L57.8984 59.4144L50.5802 56.6257L60.0508 53.7433Z" fill="#FFBD66"/>
<path d="M58.2379 61.9531L58.3079 61.9798L58.6615 61.053L58.5916 61.0263L58.2379 61.9531Z" fill="#452B4E"/>
<path d="M57.8116 61.7762L57.8816 61.8029L58.0884 61.2608L58.0185 61.2341L57.8116 61.7762Z" fill="#452B4E"/>
<path d="M57.4513 61.6537L57.5212 61.6804L57.7281 61.1383L57.6581 61.1116L57.4513 61.6537Z" fill="#452B4E"/>
<path d="M57.1124 61.5268L57.1824 61.5535L57.3892 61.0114L57.3193 60.9847L57.1124 61.5268Z" fill="#452B4E"/>
<path d="M56.8085 61.4037L56.8784 61.4304L57.0853 60.8883L57.0153 60.8616L56.8085 61.4037Z" fill="#452B4E"/>
<path d="M56.4691 61.2713L56.5391 61.298L56.7459 60.7559L56.676 60.7293L56.4691 61.2713Z" fill="#452B4E"/>
<path d="M56.1071 61.1342L56.177 61.1609L56.5306 60.2341L56.4607 60.2074L56.1071 61.1342Z" fill="#452B4E"/>
<path d="M55.6915 60.9838L55.7615 61.0105L55.9684 60.4684L55.8984 60.4417L55.6915 60.9838Z" fill="#452B4E"/>
<path d="M55.3387 60.841L55.4087 60.8677L55.6155 60.3256L55.5456 60.2989L55.3387 60.841Z" fill="#452B4E"/>
<path d="M54.9982 60.7163L55.0681 60.743L55.2746 60.2007L55.2047 60.1741L54.9982 60.7163Z" fill="#452B4E"/>
<path d="M54.6759 60.5845L54.7458 60.6112L54.9528 60.0691L54.8828 60.0424L54.6759 60.5845Z" fill="#452B4E"/>
<path d="M54.3373 60.453L54.4072 60.4797L54.6141 59.9376L54.5441 59.9109L54.3373 60.453Z" fill="#452B4E"/>
<path d="M53.857 60.2744L53.927 60.301L54.2801 59.374L54.2102 59.3474L53.857 60.2744Z" fill="#452B4E"/>
<path d="M53.423 60.1156L53.4929 60.1423L53.6998 59.6002L53.6298 59.5736L53.423 60.1156Z" fill="#452B4E"/>
<path d="M53.068 59.9764L53.1379 60.0031L53.3448 59.461L53.2748 59.4343L53.068 59.9764Z" fill="#452B4E"/>
<path d="M52.7303 59.8487L52.8003 59.8754L53.0071 59.3333L52.9372 59.3066L52.7303 59.8487Z" fill="#452B4E"/>
<path d="M52.4266 59.7256L52.4966 59.7523L52.7034 59.2102L52.6335 59.1835L52.4266 59.7256Z" fill="#452B4E"/>
<path d="M52.0856 59.5954L52.1555 59.6221L52.362 59.0798L52.2921 59.0532L52.0856 59.5954Z" fill="#452B4E"/>
<path d="M51.7252 59.4562L51.7952 59.4829L52.1488 58.5561L52.0789 58.5294L51.7252 59.4562Z" fill="#452B4E"/>
<path d="M51.3097 59.3035L51.3796 59.3302L51.5865 58.7881L51.5165 58.7614L51.3097 59.3035Z" fill="#452B4E"/>
<path d="M50.9567 59.1631L51.0266 59.1898L51.2335 58.6477L51.1635 58.621L50.9567 59.1631Z" fill="#452B4E"/>
<path d="M50.6166 59.0369L50.6865 59.0636L50.8934 58.5215L50.8234 58.4948L50.6166 59.0369Z" fill="#452B4E"/>
<path d="M50.3051 58.9306L50.375 58.9573L50.5819 58.4152L50.512 58.3885L50.3051 58.9306Z" fill="#452B4E"/>
<path d="M49.9489 58.7925L50.0188 58.8192L50.2256 58.2771L50.1557 58.2504L49.9489 58.7925Z" fill="#452B4E"/>
<path d="M49.5082 58.627L49.5781 58.6537L49.9318 57.7269L49.8618 57.7002L49.5082 58.627Z" fill="#452B4E"/>
<path d="M49.0831 58.4494L49.1531 58.476L49.3599 57.934L49.29 57.9073L49.0831 58.4494Z" fill="#452B4E"/>
<path d="M48.7225 58.3269L48.7925 58.3536L48.9993 57.8115L48.9294 57.7848L48.7225 58.3269Z" fill="#452B4E"/>
<path d="M48.3893 58.183L48.4592 58.2096L48.6658 57.6674L48.5958 57.6408L48.3893 58.183Z" fill="#452B4E"/>
<path d="M48.0797 58.0769L48.1497 58.1036L48.3565 57.5615L48.2866 57.5348L48.0797 58.0769Z" fill="#452B4E"/>
<path d="M47.7404 57.9448L47.8103 57.9715L48.0171 57.4294L47.9472 57.4027L47.7404 57.9448Z" fill="#452B4E"/>
<path d="M47.3783 57.8075L47.4482 57.8342L47.8019 56.9074L47.7319 56.8807L47.3783 57.8075Z" fill="#452B4E"/>
<path d="M46.963 57.6548L47.033 57.6815L47.2398 57.1394L47.1699 57.1127L46.963 57.6548Z" fill="#452B4E"/>
<path d="M46.61 57.5145L46.6799 57.5412L46.8868 56.9991L46.8168 56.9725L46.61 57.5145Z" fill="#452B4E"/>
<path d="M46.2709 57.3876L46.3408 57.4143L46.5477 56.8722L46.4777 56.8456L46.2709 57.3876Z" fill="#452B4E"/>
<path d="M45.9662 57.2648L46.0361 57.2914L46.2427 56.7492L46.1727 56.7226L45.9662 57.2648Z" fill="#452B4E"/>
<path d="M45.6088 57.1264L45.6787 57.1531L45.8856 56.611L45.8156 56.5843L45.6088 57.1264Z" fill="#452B4E"/>
<path d="M45.1271 56.9485L45.197 56.9752L45.5507 56.0483L45.4807 56.0217L45.1271 56.9485Z" fill="#452B4E"/>
</svg>
