<svg width="40" height="40" viewBox="0 0 40 40" fill="none" xmlns="http://www.w3.org/2000/svg">
<rect width="40" height="40" rx="20" fill="#CED0FF"/>
<g clip-path="url(#clip0_31_4429)">
<path d="M19.7076 10.633C16.2865 5.41779 6.11108 9.29277 6.11108 9.29277V30.8528C12.9239 28.4346 19.7076 32.2222 19.7076 32.2222C19.7076 32.2222 26.5204 28.522 33.3041 30.8528V9.29277C33.3333 9.29277 24.5906 5.12644 19.7076 10.633Z" fill="#FFBD66"/>
<path d="M7.01758 10.2542C7.01758 10.2542 16.6959 6.32096 19.7369 12.0606V30.5906C19.7369 30.5906 13.3918 27.0361 7.01758 29.3086V10.2542Z" fill="#FAF3EB"/>
<path d="M32.4268 10.2542C32.4268 10.2542 22.7777 6.32099 19.7075 12.0315V30.5615C19.7075 30.5615 26.0525 27.0944 32.4268 29.2795V10.2542Z" fill="#FAF3EB"/>
<path d="M20.8772 7.98172H22.1053V13.8379L21.4912 13.4591L20.8772 14.0127V7.98172Z" fill="#FF545C"/>
<path d="M20.8772 14.9159C20.8772 14.9159 26.345 11.9441 31.1988 14.0418" stroke="#452B4E" stroke-width="0.5" stroke-miterlimit="10"/>
<path d="M20.8772 16.9553C20.8772 16.9553 26.345 13.9835 31.1988 16.0813" stroke="#452B4E" stroke-width="0.5" stroke-miterlimit="10"/>
<path d="M20.8772 18.9948C20.8772 18.9948 26.345 16.023 31.1988 18.1207" stroke="#452B4E" stroke-width="0.5" stroke-miterlimit="10"/>
<path d="M20.8772 21.0634C20.8772 21.0634 26.345 18.0916 31.1988 20.1894" stroke="#452B4E" stroke-width="0.5" stroke-miterlimit="10"/>
<path d="M18.5379 21.3548C18.5379 21.3548 13.0701 18.383 8.21631 20.4807" stroke="#452B4E" stroke-width="0.5" stroke-miterlimit="10"/>
<path d="M18.5379 23.4233C18.5379 23.4233 13.0701 20.4515 8.21631 22.5493" stroke="#452B4E" stroke-width="0.5" stroke-miterlimit="10"/>
<path d="M18.5379 25.4628C18.5379 25.4628 13.0701 22.491 8.21631 24.5887" stroke="#452B4E" stroke-width="0.5" stroke-miterlimit="10"/>
<path d="M18.5379 27.5023C18.5379 27.5023 13.0701 24.5305 8.21631 26.6282" stroke="#452B4E" stroke-width="0.5" stroke-miterlimit="10"/>
<path d="M8.18701 11.9149C8.18701 11.9149 15.263 10.429 18.187 13.6922V18.9948C18.187 18.9948 12.4853 16.023 8.18701 18.179V11.9149V11.9149Z" stroke="#452B4E" stroke-width="0.5" stroke-miterlimit="10"/>
<path d="M30.8772 21.7044C30.8772 21.7044 23.8012 20.2185 20.8772 23.4816V28.7842C20.8772 28.7842 26.5789 25.8125 30.8772 27.9685V21.7044Z" stroke="#452B4E" stroke-width="0.5" stroke-miterlimit="10"/>
</g>
<defs>
<clipPath id="clip0_31_4429">
<rect width="27.2222" height="24.4444" fill="white" transform="translate(6.11108 7.77777)"/>
</clipPath>
</defs>
</svg>
