<svg width="72" height="72" viewBox="0 0 72 72" fill="none" xmlns="http://www.w3.org/2000/svg">
<rect width="72" height="72" rx="36" fill="#A6E6C3"/>
<path d="M55.07 61H17.429V57.4807C17.429 56.8687 17.888 56.4096 18.5 56.4096H54.1519C54.764 56.4096 55.223 56.8687 55.223 57.4807V61H55.07Z" fill="#452B4E"/>
<path d="M52.1627 56.4097C55.0699 30.5506 42.5229 19.8398 30.741 19.8398V30.2446C37.4735 30.2446 45.1241 36.0591 42.982 56.5628H52.1627V56.4097Z" fill="#9DA2FF"/>
<path d="M30.741 11.7301H20.7952V35.447H30.741V11.7301Z" fill="#9DA2FF"/>
<path d="M29.2109 35.4469H22.1724V38.0481H29.2109V35.4469Z" fill="#452B4E"/>
<path d="M27.6809 10.1999H23.5496V11.7301H27.6809V10.1999Z" fill="#452B4E"/>
<path d="M33.6484 42.0265H17.7351V48.453H33.6484V42.0265Z" fill="#452B4E"/>
<path d="M30.741 48.2999H20.7952V56.4096H30.741V48.2999Z" fill="#9DA2FF"/>
<path d="M44.206 51.8192H30.5879V56.4096H44.206V51.8192Z" fill="#9DA2FF"/>
</svg>
