<svg width="40" height="40" viewBox="0 0 40 40" fill="none" xmlns="http://www.w3.org/2000/svg">
<rect width="40" height="40" rx="20" fill="#A6E6C3"/>
<path d="M30.5943 33.8889H9.68262V31.9337C9.68262 31.5937 9.93764 31.3387 10.2777 31.3387H30.0843C30.4243 31.3387 30.6793 31.5937 30.6793 31.9337V33.8889H30.5943Z" fill="#452B4E"/>
<path d="M28.9791 31.3387C30.5942 16.9726 23.6237 11.0221 17.0781 11.0221V16.8026C20.8184 16.8026 25.0688 20.0328 23.8787 31.4238H28.9791V31.3387Z" fill="#9DA2FF"/>
<path d="M17.0782 6.51669H11.5527V19.6928H17.0782V6.51669Z" fill="#9DA2FF"/>
<path d="M16.2282 19.6927H12.3179V21.1378H16.2282V19.6927Z" fill="#452B4E"/>
<path d="M15.3782 5.66663H13.083V6.5167H15.3782V5.66663Z" fill="#452B4E"/>
<path d="M18.6933 23.3481H9.85254V26.9183H18.6933V23.3481Z" fill="#452B4E"/>
<path d="M17.0782 26.8333H11.5527V31.3387H17.0782V26.8333Z" fill="#9DA2FF"/>
<path d="M24.5588 28.7885H16.9932V31.3387H24.5588V28.7885Z" fill="#9DA2FF"/>
</svg>
