<svg width="93" height="29" viewBox="0 0 93 29" fill="none" xmlns="http://www.w3.org/2000/svg">
<path d="M33.4613 9.04193C33.2267 8.79226 33.1015 8.48017 33.1015 8.10567V0.00695801H31.4746V7.93402C31.4746 8.48017 31.5998 8.99512 31.8344 9.43204C32.0691 9.86897 32.4132 10.2279 32.8512 10.4931C33.2892 10.7428 33.8055 10.8833 34.3999 10.8833H37.3565V9.43204H34.3999C34.0088 9.41644 33.696 9.2916 33.4613 9.04193Z" fill="#452B4E"/>
<path d="M44.6933 3.28389C44.0675 2.90938 43.3323 2.73773 42.5345 2.73773C41.721 2.73773 41.0014 2.92499 40.3757 3.28389C39.7499 3.65839 39.2494 4.15774 38.8896 4.78191C38.5298 5.40609 38.342 6.1239 38.342 6.88851C38.342 7.66874 38.5298 8.37094 38.8896 8.99511C39.2494 9.61929 39.7499 10.1186 40.3757 10.4931C41.0014 10.8676 41.721 11.0393 42.5345 11.0393C43.3479 11.0393 44.0675 10.852 44.6933 10.4931C45.319 10.1186 45.8196 9.61929 46.1794 8.99511C46.5392 8.37094 46.7113 7.65313 46.7113 6.88851C46.7113 6.10829 46.5235 5.40609 46.1794 4.78191C45.8196 4.15774 45.319 3.65839 44.6933 3.28389ZM42.5501 9.69732C42.0182 9.69732 41.5646 9.57248 41.1735 9.32281C40.7824 9.07314 40.4695 8.74544 40.2505 8.32412C40.0315 7.9028 39.922 7.41907 39.922 6.90412C39.922 6.37357 40.0315 5.90543 40.2505 5.48411C40.4695 5.06279 40.7824 4.7351 41.1735 4.48543C41.5646 4.23576 42.0182 4.11092 42.5501 4.11092C43.0663 4.11092 43.52 4.23576 43.8954 4.48543C44.2865 4.7351 44.5838 5.06279 44.8028 5.48411C45.0218 5.90543 45.1313 6.38917 45.1313 6.90412C45.1313 7.43467 45.0218 7.9028 44.8028 8.32412C44.5838 8.74544 44.2865 9.07314 43.8954 9.32281C43.52 9.57248 43.0663 9.69732 42.5501 9.69732Z" fill="#452B4E"/>
<path d="M54.2982 3.28389C53.6725 2.90938 52.9373 2.73773 52.1394 2.73773C51.326 2.73773 50.6064 2.92499 49.9807 3.28389C49.3549 3.65839 48.8543 4.15774 48.4945 4.78191C48.1347 5.40609 47.947 6.1239 47.947 6.88851C47.947 7.66874 48.1347 8.37094 48.4945 8.99511C48.8543 9.61929 49.3549 10.1186 49.9807 10.4931C50.6064 10.8676 51.326 11.0393 52.1394 11.0393C52.9529 11.0393 53.6725 10.852 54.2982 10.4931C54.924 10.1186 55.4246 9.61929 55.7844 8.99511C56.1442 8.37094 56.3162 7.65313 56.3162 6.88851C56.3162 6.10829 56.1285 5.40609 55.7844 4.78191C55.4246 4.15774 54.924 3.65839 54.2982 3.28389ZM52.1394 9.69732C51.6076 9.69732 51.1539 9.57248 50.7628 9.32281C50.3717 9.07314 50.0589 8.74544 49.8399 8.32412C49.6209 7.9028 49.5114 7.41907 49.5114 6.90412C49.5114 6.37357 49.6209 5.90543 49.8399 5.48411C50.0589 5.06279 50.3717 4.7351 50.7628 4.48543C51.1539 4.23576 51.6076 4.11092 52.1394 4.11092C52.6557 4.11092 53.1093 4.23576 53.4848 4.48543C53.8759 4.7351 54.1731 5.06279 54.3921 5.48411C54.6111 5.90543 54.7206 6.38917 54.7206 6.90412C54.7206 7.43467 54.6111 7.9028 54.3921 8.32412C54.1731 8.74544 53.8759 9.07314 53.4848 9.32281C53.1093 9.57248 52.6557 9.69732 52.1394 9.69732Z" fill="#452B4E"/>
<path d="M65.6084 9.13556C65.9526 8.52698 66.109 7.80918 66.109 6.98214C66.109 6.32675 65.9995 5.73379 65.8118 5.21884C65.6084 4.70389 65.3268 4.23576 64.967 3.87686C64.6072 3.50235 64.1692 3.22147 63.6686 3.01861C63.168 2.83136 62.6205 2.73773 62.0104 2.73773C61.2439 2.73773 60.5399 2.90938 59.9298 3.23707C59.3198 3.56477 58.8192 4.04851 58.4594 4.67268C58.0996 5.29686 57.9275 6.06148 57.9275 6.95093V14.2538H59.4918V9.61929C59.6483 9.85336 59.8516 10.0718 60.0706 10.2747C60.3522 10.5244 60.6964 10.7116 61.0562 10.852C61.4316 10.9925 61.8227 11.0549 62.2294 11.0549C62.9647 11.0549 63.6373 10.8833 64.2161 10.5556C64.7949 10.2279 65.2642 9.74413 65.6084 9.13556ZM60.7433 4.43862C61.1187 4.22015 61.5411 4.09532 61.9948 4.09532C62.4641 4.09532 62.8865 4.20455 63.2619 4.43862C63.6373 4.67268 63.9502 4.98477 64.1692 5.40609C64.4039 5.82741 64.5134 6.32675 64.5134 6.90412C64.5134 7.46588 64.4039 7.94962 64.1849 8.37094C63.9658 8.79226 63.653 9.11995 63.2775 9.35402C62.9021 9.58808 62.4797 9.71292 61.9948 9.71292C61.5255 9.71292 61.1031 9.60369 60.7277 9.36962C60.3522 9.15116 60.0394 8.82347 59.8203 8.40215C59.6013 7.98083 59.4918 7.48148 59.4918 6.90412C59.4918 6.34236 59.6013 5.84302 59.8203 5.4217C60.0706 4.98477 60.3679 4.65708 60.7433 4.43862Z" fill="#452B4E"/>
<path d="M33.4613 24.1002C33.2267 23.8505 33.1015 23.5384 33.1015 23.1639V15.0496H31.4746V22.9767C31.4746 23.5228 31.5998 24.0378 31.8344 24.4747C32.0691 24.9116 32.4132 25.2705 32.8512 25.5358C33.2892 25.7855 33.8055 25.9259 34.3999 25.9259H37.3565V24.4747H34.3999C34.0088 24.4747 33.696 24.3499 33.4613 24.1002Z" fill="#452B4E"/>
<path d="M44.2396 18.3266C43.6921 17.9677 43.0038 17.796 42.1747 17.796C41.4238 17.796 40.7355 17.9833 40.1723 18.3422C39.5935 18.7011 39.1555 19.2004 38.827 19.8402C38.4985 20.4644 38.342 21.1822 38.342 21.9624C38.342 22.7582 38.5298 23.4604 38.9208 24.0534C39.2963 24.6464 39.8282 25.1145 40.5165 25.4422C41.1891 25.7699 41.9713 25.9259 42.8317 25.9259H44.9123V24.5684H42.8004C42.3155 24.5684 41.8618 24.4903 41.4551 24.3187C41.0483 24.1626 40.7198 23.913 40.4695 23.5853C40.2349 23.2888 40.0785 22.9143 40.0159 22.493H45.8196L45.8352 22.4305C45.8509 22.3369 45.8665 22.2277 45.8822 22.1028C45.8822 21.978 45.8822 21.8688 45.8822 21.7439C45.8822 21.0105 45.7414 20.3395 45.4754 19.7466C45.1939 19.1536 44.7871 18.6699 44.2396 18.3266ZM41.2674 19.3253C41.5333 19.2004 41.8305 19.1224 42.1747 19.1224C42.5032 19.1224 42.7848 19.1692 43.0194 19.2628C43.2541 19.3565 43.4574 19.4969 43.6295 19.653C43.7859 19.809 43.9267 19.9962 44.0206 20.1991C44.1145 20.402 44.1927 20.6048 44.224 20.8233C44.2552 21.0105 44.2709 21.1822 44.2865 21.3538H39.9846C40.0159 21.1042 40.0628 20.8545 40.1567 20.6048C40.2505 20.3239 40.407 20.0743 40.5947 19.8558C40.7824 19.6373 41.0171 19.4501 41.2674 19.3253Z" fill="#452B4E"/>
<path d="M53.4379 18.3266C52.8435 17.9677 52.1082 17.7805 51.2635 17.7805C50.3874 17.7805 49.6366 17.9677 49.0108 18.3266C48.3851 18.7011 47.9001 19.2005 47.5716 19.8246C47.2431 20.4488 47.071 21.1666 47.071 21.9312C47.071 22.6959 47.2275 23.3981 47.5247 24.0222C47.8219 24.662 48.2599 25.1614 48.8231 25.5359C49.3863 25.9104 50.0589 26.0976 50.8255 26.0976C51.3573 26.0976 51.8266 26.004 52.2177 25.8324C52.6088 25.6607 52.953 25.4266 53.2189 25.1458C53.4223 24.9273 53.5943 24.7088 53.7351 24.4904V25.9104H55.3151V21.8844C55.3151 21.1198 55.143 20.4176 54.8302 19.7934C54.5173 19.2005 54.048 18.7011 53.4379 18.3266ZM51.2478 19.1536C51.7484 19.1536 52.2021 19.2785 52.5775 19.5125C52.953 19.7466 53.2502 20.0899 53.4536 20.4956C53.6569 20.917 53.7664 21.3851 53.7664 21.9156C53.7664 22.4462 53.6569 22.9455 53.4379 23.3668C53.2189 23.7882 52.9217 24.1315 52.5462 24.3811C52.1708 24.6152 51.7328 24.74 51.2322 24.74C50.7003 24.74 50.231 24.6152 49.8712 24.3655C49.4958 24.1159 49.2142 23.7882 49.0108 23.3668C48.8075 22.9455 48.7136 22.4774 48.7136 21.9624C48.7136 21.4319 48.8231 20.9482 49.0265 20.5268C49.2298 20.1055 49.5271 19.7778 49.9025 19.5282C50.2467 19.2785 50.7003 19.1536 51.2478 19.1536Z" fill="#452B4E"/>
<path d="M57.9902 18.5762C57.5835 18.9819 57.3801 19.5437 57.3801 20.2615V25.9259H58.9445V20.3551C58.9445 20.0274 59.0383 19.7778 59.2104 19.6061C59.3825 19.4345 59.6328 19.3408 59.9456 19.3408H61.3692V17.9833H59.6797C58.9601 17.9677 58.397 18.1705 57.9902 18.5762Z" fill="#452B4E"/>
<path d="M68.1583 18.233C67.5951 17.9365 66.9537 17.7805 66.2341 17.7805C65.5145 17.7805 64.8732 17.9365 64.31 18.233C63.7468 18.5295 63.3088 18.9508 62.9803 19.4813C62.6674 20.0119 62.4954 20.6361 62.4954 21.3383V25.926H64.0597V21.3539C64.0597 20.9013 64.1692 20.5112 64.3569 20.1835C64.5603 19.8558 64.8262 19.6062 65.1547 19.4189C65.4832 19.2473 65.843 19.1536 66.2185 19.1536C66.5939 19.1536 66.9537 19.2473 67.2822 19.4189C67.6108 19.5906 67.8767 19.8558 68.0801 20.1835C68.2834 20.5112 68.3773 20.9013 68.3773 21.3539V25.926H69.9416V21.3383C69.9416 20.6361 69.7852 20.0119 69.4567 19.4813C69.1594 18.9508 68.7214 18.5295 68.1583 18.233Z" fill="#452B4E"/>
<path d="M72.8357 14.8312C72.5541 14.8312 72.3195 14.9404 72.1161 15.1433C71.9127 15.3461 71.8032 15.5958 71.8032 15.8611C71.8032 16.1419 71.9127 16.376 72.1161 16.5789C72.3195 16.7817 72.5698 16.891 72.8357 16.891C73.1173 16.891 73.3519 16.7817 73.5553 16.5789C73.7587 16.376 73.8682 16.1263 73.8682 15.8611C73.8682 15.5802 73.7587 15.3461 73.5553 15.1433C73.3676 14.9404 73.1173 14.8312 72.8357 14.8312Z" fill="#452B4E"/>
<path d="M73.6178 17.9677H72.0378V25.926H73.6178V17.9677Z" fill="#452B4E"/>
<path d="M81.3458 18.233C80.7826 17.9365 80.1412 17.7805 79.4216 17.7805C78.702 17.7805 78.0607 17.9365 77.4975 18.233C76.9343 18.5295 76.4963 18.9508 76.1678 19.4813C75.8549 20.0119 75.6829 20.6361 75.6829 21.3383V25.926H77.2472V21.3539C77.2472 20.9013 77.3567 20.5112 77.5444 20.1835C77.7478 19.8558 78.0137 19.6062 78.3422 19.4189C78.6708 19.2473 79.0306 19.1536 79.406 19.1536C79.7814 19.1536 80.1412 19.2473 80.4697 19.4189C80.7983 19.5906 81.0642 19.8558 81.2676 20.1835C81.4709 20.5112 81.5648 20.9013 81.5648 21.3539V25.926H83.1291V21.3383C83.1291 20.6361 82.9727 20.0119 82.6442 19.4813C82.347 18.9508 81.9089 18.5295 81.3458 18.233Z" fill="#452B4E"/>
<path d="M92.4995 19.7934C92.1554 19.1693 91.6861 18.6699 91.0604 18.311C90.4503 17.9521 89.715 17.7805 88.8859 17.7805C88.0255 17.7805 87.2903 17.9677 86.6802 18.3266C86.0701 18.6855 85.6008 19.1849 85.2723 19.809C84.9438 20.4332 84.7874 21.1354 84.7874 21.9156C84.7874 22.7115 84.9438 23.4293 85.2723 24.0378C85.6008 24.662 86.0545 25.1458 86.6176 25.4891C87.1964 25.8324 87.8535 26.0196 88.6043 26.0196C89.058 26.0196 89.4804 25.9416 89.8402 25.8011C90.2 25.6607 90.5285 25.4735 90.8101 25.2238C91.0447 25.0365 91.2481 24.8181 91.4202 24.5684V26.5033C91.4202 26.8466 91.3263 27.1275 91.1229 27.3304C90.9352 27.5332 90.6536 27.6425 90.2938 27.6425H86.383V29.0001H90.5754C91.3263 29.0001 91.9207 28.7816 92.3431 28.3447C92.7811 27.9077 93.0001 27.3148 93.0001 26.5814V21.9624C93.0001 21.1666 92.8281 20.4176 92.4995 19.7934ZM87.5562 19.5282C87.9317 19.2941 88.3697 19.1693 88.8859 19.1693C89.4022 19.1693 89.8715 19.2941 90.2313 19.5282C90.6067 19.7622 90.9039 20.1055 91.1073 20.5112C91.3107 20.9326 91.4202 21.4007 91.4202 21.9312C91.4202 22.4462 91.3106 22.9143 91.0916 23.32C90.8726 23.7257 90.5754 24.0534 90.2 24.2875C89.8245 24.5216 89.3709 24.6464 88.8703 24.6464C88.354 24.6464 87.916 24.5216 87.5406 24.2875C87.1651 24.0534 86.8836 23.7101 86.6802 23.3044C86.4768 22.8987 86.3673 22.4306 86.3673 21.9468C86.3673 21.4163 86.4768 20.9482 86.6802 20.5268C86.8836 20.1055 87.1808 19.7778 87.5562 19.5282Z" fill="#452B4E"/>
<path d="M23.6842 1.44254C23.6842 0.131771 22.0886 -0.492407 21.1969 0.459464L17.2079 3.95486C16.019 3.11222 14.5798 2.61288 13.0154 2.61288C11.5762 2.61288 10.2309 3.0498 9.08893 3.78321L5.56916 0.896389C4.66185 -0.00866925 3.11315 0.631113 3.11315 1.91068L1.56445 21.4943V21.7595C1.56445 25.9727 4.81828 25.9415 8.7917 25.9415H22.3545C23.9658 25.9415 25.2798 24.5527 25.2798 22.8518V21.4787L23.6842 1.44254Z" fill="#FF805D"/>
<path d="M7.18044 18.9039C10.6276 18.9039 13.4222 16.1164 13.4222 12.6778C13.4222 9.23915 10.6276 6.4516 7.18044 6.4516C3.73323 6.4516 0.938721 9.23915 0.938721 12.6778C0.938721 16.1164 3.73323 18.9039 7.18044 18.9039Z" fill="white"/>
<path d="M7.18032 19.8402C3.22254 19.8402 0 16.6413 0 12.6778C0 8.71423 3.22254 5.51532 7.18032 5.51532C11.1381 5.51532 14.3606 8.72984 14.3606 12.6778C14.3606 16.6257 11.1381 19.8402 7.18032 19.8402ZM7.18032 7.40346C4.255 7.40346 1.87721 9.77533 1.87721 12.6778C1.87721 15.5802 4.255 17.9677 7.18032 17.9677C10.1056 17.9677 12.4834 15.5958 12.4834 12.6778C12.4834 9.75973 10.1056 7.40346 7.18032 7.40346Z" fill="#452B4E"/>
<path d="M19.6638 18.9039C23.111 18.9039 25.9056 16.1164 25.9056 12.6778C25.9056 9.23915 23.111 6.4516 19.6638 6.4516C16.2166 6.4516 13.4221 9.23915 13.4221 12.6778C13.4221 16.1164 16.2166 18.9039 19.6638 18.9039Z" fill="white"/>
<path d="M19.6637 19.8402C15.7059 19.8402 12.4834 16.6257 12.4834 12.6778C12.4834 8.72984 15.7059 5.51532 19.6637 5.51532C23.6215 5.51532 26.844 8.72984 26.844 12.6778C26.844 16.6257 23.6215 19.8402 19.6637 19.8402ZM19.6637 7.40346C16.7384 7.40346 14.3606 9.77533 14.3606 12.6934C14.3606 15.6114 16.7384 17.9833 19.6637 17.9833C22.589 17.9833 24.9668 15.6114 24.9668 12.6934C24.9668 9.77533 22.589 7.40346 19.6637 7.40346Z" fill="#452B4E"/>
<path d="M7.18033 14.6752C8.2862 14.6752 9.18269 13.7809 9.18269 12.6778C9.18269 11.5747 8.2862 10.6804 7.18033 10.6804C6.07446 10.6804 5.17798 11.5747 5.17798 12.6778C5.17798 13.7809 6.07446 14.6752 7.18033 14.6752Z" fill="#452B4E"/>
<path d="M19.4447 14.6752C20.5506 14.6752 21.4471 13.7809 21.4471 12.6778C21.4471 11.5747 20.5506 10.6804 19.4447 10.6804C18.3389 10.6804 17.4424 11.5747 17.4424 12.6778C17.4424 13.7809 18.3389 14.6752 19.4447 14.6752Z" fill="#452B4E"/>
<path d="M14.0007 20.0275L15.7215 17.4215C15.9875 16.9846 15.6746 16.0327 15.174 16.0327H11.7324C11.2319 16.0327 10.919 16.9846 11.1849 17.4215L12.9057 20.0275C13.156 20.4332 13.7504 20.4332 14.0007 20.0275Z" fill="#452B4E"/>
</svg>
