<svg width="16" height="16" viewBox="0 0 16 16" fill="none" xmlns="http://www.w3.org/2000/svg">
<g clip-path="url(#clip0_31_3477)">
<path d="M1.17236 15.5556H0.672363C0.672363 15.8317 0.896221 16.0556 1.17236 16.0556V15.5556ZM1.17236 2.09526L0.84409 1.71811C0.734994 1.81307 0.672363 1.95062 0.672363 2.09526H1.17236ZM12.9942 13.8413L13.4931 13.8744C13.4938 13.8634 13.4942 13.8523 13.4942 13.8413H12.9942ZM3.06891 0.444458V-0.055542H2.88179L2.74064 0.067315L3.06891 0.444458ZM14.7011 2.5397H14.201L14.2012 2.54848L14.7011 2.5397ZM14.8908 13.3333L15.3765 13.4519L15.3918 13.3891L15.3907 13.3246L14.8908 13.3333ZM4.0459 4.38096V3.88096H3.5459V4.38096H4.0459ZM9.79877 4.38096H10.2988V3.88096H9.79877V4.38096ZM9.79877 5.77779V6.27779H10.2988V5.77779H9.79877ZM4.0459 5.77779H3.5459V6.27779H4.0459V5.77779ZM11.2873 15.0556H1.17236V16.0556H11.2873V15.0556ZM1.67236 15.5556V2.09526H0.672363V15.5556H1.67236ZM1.17236 2.59526H11.2873V1.59526H1.17236V2.59526ZM11.2873 2.59526C11.9574 2.59526 12.4942 3.13126 12.4942 3.80954H13.4942C13.4942 2.58306 12.5138 1.59526 11.2873 1.59526V2.59526ZM12.4942 3.80954V13.8413H13.4942V3.80954H12.4942ZM12.4953 13.8082C12.4473 14.5306 11.8775 15.0556 11.2873 15.0556V16.0556C12.4673 16.0556 13.4146 15.0567 13.4931 13.8744L12.4953 13.8082ZM1.50064 2.4724L3.39719 0.821601L2.74064 0.067315L0.84409 1.71811L1.50064 2.4724ZM3.06891 0.944458H12.8678V-0.055542H3.06891V0.944458ZM12.8678 0.944458C13.5406 0.944458 14.2011 1.60603 14.2011 2.5397H15.2011C15.2011 1.18765 14.2179 -0.055542 12.8678 -0.055542V0.944458ZM14.2012 2.54848L14.3908 13.3421L15.3907 13.3246L15.201 2.53091L14.2012 2.54848ZM14.8908 13.3333C14.405 13.2148 14.4051 13.2145 14.4052 13.2142C14.4052 13.2141 14.4052 13.2138 14.4053 13.2136C14.4054 13.2133 14.4055 13.213 14.4055 13.2127C14.4057 13.2121 14.4058 13.2116 14.4059 13.2113C14.406 13.2106 14.4061 13.2104 14.406 13.2107C14.4059 13.2113 14.4052 13.2138 14.404 13.218C14.4015 13.2265 14.3968 13.242 14.3894 13.2636C14.3746 13.3068 14.3491 13.3738 14.3096 13.4573C14.2305 13.6246 14.0963 13.8549 13.8804 14.0917C13.4582 14.555 12.6903 15.0805 11.302 15.1677L11.3646 16.1657C13.0108 16.0624 14.0216 15.4213 14.6195 14.7654C14.9136 14.4427 15.0999 14.1254 15.2136 13.885C15.2705 13.7646 15.3097 13.6628 15.3353 13.588C15.3481 13.5506 15.3576 13.5199 15.3643 13.4969C15.3676 13.4854 15.3703 13.4758 15.3723 13.4683C15.3733 13.4645 15.3741 13.4612 15.3748 13.4585C15.3752 13.4571 15.3755 13.4559 15.3758 13.4548C15.3759 13.4542 15.376 13.4537 15.3762 13.4532C15.3762 13.453 15.3763 13.4527 15.3763 13.4525C15.3764 13.4522 15.3765 13.4519 14.8908 13.3333ZM4.0459 4.88096H9.79877V3.88096H4.0459V4.88096ZM9.29877 4.38096V5.77779H10.2988V4.38096H9.29877ZM9.79877 5.27779H4.0459V6.27779H9.79877V5.27779ZM4.5459 5.77779V4.38096H3.5459V5.77779H4.5459Z" fill="#452B4E"/>
</g>
<defs>
<clipPath id="clip0_31_3477">
<rect width="16" height="16" fill="white"/>
</clipPath>
</defs>
</svg>
