<svg width="16" height="16" viewBox="0 0 16 16" fill="none" xmlns="http://www.w3.org/2000/svg">
<path d="M10.1333 11.2V15.4667L12.2667 13.8667L14.4 15.4667V11.2M15.4667 5.33333V1.59999C15.4667 1.01089 14.9891 0.533325 14.4 0.533325H1.59999C1.01089 0.533325 0.533325 1.01089 0.533325 1.59999V14.4C0.533325 14.9891 1.01089 15.4667 1.59999 15.4667H8.53333M3.19999 4.79999H8.53333M3.19999 7.99999H6.39999M12.2667 12.2667C10.4993 12.2667 9.06666 10.834 9.06666 9.06666C9.06666 7.29935 10.4993 5.86666 12.2667 5.86666C14.034 5.86666 15.4667 7.29935 15.4667 9.06666C15.4667 10.834 14.034 12.2667 12.2667 12.2667Z" stroke="#452B4E" stroke-linejoin="round"/>
</svg>
