<svg width="16" height="16" viewBox="0 0 16 16" fill="none" xmlns="http://www.w3.org/2000/svg">
<g clip-path="url(#clip0_1_918)">
<path d="M8.49999 11.2V10.7H7.49999V11.2H8.49999ZM7.49999 11.2107V11.7107H8.49999V11.2107H7.49999ZM7.49999 4.26666V8.53332H8.49999V4.26666H7.49999ZM7.49999 11.2V11.2107H8.49999V11.2H7.49999ZM7.99999 14.9667C4.15241 14.9667 1.03333 11.8476 1.03333 7.99999H0.0333252C0.0333252 12.3999 3.60012 15.9667 7.99999 15.9667V14.9667ZM14.9667 7.99999C14.9667 11.8476 11.8476 14.9667 7.99999 14.9667V15.9667C12.3999 15.9667 15.9667 12.3999 15.9667 7.99999H14.9667ZM7.99999 1.03333C11.8476 1.03333 14.9667 4.15241 14.9667 7.99999H15.9667C15.9667 3.60012 12.3999 0.0333252 7.99999 0.0333252V1.03333ZM7.99999 0.0333252C3.60012 0.0333252 0.0333252 3.60012 0.0333252 7.99999H1.03333C1.03333 4.15241 4.15241 1.03333 7.99999 1.03333V0.0333252Z" fill="#452B4E"/>
</g>
<defs>
<clipPath id="clip0_1_918">
<rect width="16" height="16" fill="white"/>
</clipPath>
</defs>
</svg>
