<svg width="40" height="40" viewBox="0 0 40 40" fill="none" xmlns="http://www.w3.org/2000/svg">
<circle cx="20" cy="20" r="20" fill="#7FD5DE"/>
<mask id="mask0_31_4563" style="mask-type:alpha" maskUnits="userSpaceOnUse" x="0" y="0" width="40" height="40">
<circle cx="20" cy="20" r="20" fill="#C4C4C4"/>
</mask>
<g mask="url(#mask0_31_4563)">
<path d="M15.8656 31.2995C15.8656 31.2995 4.63386 31.633 4.71706 41.0124L2.88671 50.0999L-7.47144 48.4742H-10.6746L-6.84746 55.7693L3.92668 58.1037C3.92668 58.1037 5.46585 64.44 10.0417 65.0236C14.576 65.6072 31.7564 72.3604 31.7564 72.3604C31.7564 72.3604 38.4954 73.2358 37.9131 63.2311C37.3307 53.2264 35.1259 40.5955 35.1259 40.5955C35.1259 40.5955 32.0476 32.2166 23.9774 32.5084C15.8656 32.7585 15.8656 31.2995 15.8656 31.2995Z" fill="#FF545C"/>
<path d="M19.36 22.5037C23.0589 22.5037 26.0575 19.4989 26.0575 15.7922C26.0575 12.0856 23.0589 9.08073 19.36 9.08073C15.6611 9.08073 12.6626 12.0856 12.6626 15.7922C12.6626 19.4989 15.6611 22.5037 19.36 22.5037Z" fill="#FFBD66"/>
<path d="M17.4467 29.2152C21.1456 29.2152 24.1441 26.2104 24.1441 22.5037C24.1441 18.7971 21.1456 15.7922 17.4467 15.7922C13.7478 15.7922 10.7493 18.7971 10.7493 22.5037C10.7493 26.2104 13.7478 29.2152 17.4467 29.2152Z" fill="#FFBD66"/>
<path d="M19.9009 37.3857C17.5714 37.1772 15.8658 35.0929 16.0738 32.7585L17.613 16.6259C17.821 14.2915 19.9009 12.5824 22.2305 12.7908C24.56 12.9992 26.2656 15.0835 26.0576 17.418L24.5184 33.5505C24.2688 35.885 22.1889 37.5941 19.9009 37.3857Z" fill="#FFBD66"/>
<path d="M14.1181 10.8732C15.5196 10.8732 16.6556 9.73476 16.6556 8.33038C16.6556 6.926 15.5196 5.78752 14.1181 5.78752C12.7167 5.78752 11.5806 6.926 11.5806 8.33038C11.5806 9.73476 12.7167 10.8732 14.1181 10.8732Z" fill="#452B4E"/>
<path d="M18.8193 10.4147C20.2207 10.4147 21.3568 9.27622 21.3568 7.87184C21.3568 6.46746 20.2207 5.32898 18.8193 5.32898C17.4178 5.32898 16.2817 6.46746 16.2817 7.87184C16.2817 9.27622 17.4178 10.4147 18.8193 10.4147Z" fill="#452B4E"/>
<path d="M22.8547 10.8732C24.2561 10.8732 25.3922 9.73476 25.3922 8.33038C25.3922 6.926 24.2561 5.78752 22.8547 5.78752C21.4532 5.78752 20.3171 6.926 20.3171 8.33038C20.3171 9.73476 21.4532 10.8732 22.8547 10.8732Z" fill="#452B4E"/>
<path d="M26.0573 12.2489C27.4588 12.2489 28.5949 11.1104 28.5949 9.70602C28.5949 8.30164 27.4588 7.16316 26.0573 7.16316C24.6559 7.16316 23.5198 8.30164 23.5198 9.70602C23.5198 11.1104 24.6559 12.2489 26.0573 12.2489Z" fill="#452B4E"/>
<path d="M27.3889 14.7917C28.7903 14.7917 29.9264 13.6533 29.9264 12.2489C29.9264 10.8445 28.7903 9.70602 27.3889 9.70602C25.9874 9.70602 24.8513 10.8445 24.8513 12.2489C24.8513 13.6533 25.9874 14.7917 27.3889 14.7917Z" fill="#452B4E"/>
<path d="M27.9706 18.0433C29.3721 18.0433 30.5082 16.9048 30.5082 15.5004C30.5082 14.096 29.3721 12.9576 27.9706 12.9576C26.5692 12.9576 25.4331 14.096 25.4331 15.5004C25.4331 16.9048 26.5692 18.0433 27.9706 18.0433Z" fill="#452B4E"/>
<path d="M12.7041 10.4564C12.7041 10.4564 12.8289 11.1234 15.5328 11.5402C18.2368 11.9571 23.5198 11.2484 23.5198 14.8334C23.5198 18.4184 23.5614 18.877 23.5614 18.877C23.5614 18.877 24.9758 16.9594 26.0574 16.5009C27.0142 16.084 27.3885 11.2067 27.3885 11.2067L20.8991 7.16316L14.4929 7.91351L12.7041 10.4564Z" fill="#452B4E"/>
<path d="M27.3465 23.3791C29.4372 23.3791 31.1321 21.6807 31.1321 19.5857C31.1321 17.4906 29.4372 15.7922 27.3465 15.7922C25.2559 15.7922 23.561 17.4906 23.561 19.5857C23.561 21.6807 25.2559 23.3791 27.3465 23.3791Z" fill="#FFBD66"/>
<path d="M13.5362 17.8765C13.8579 17.8765 14.1186 17.6152 14.1186 17.2929C14.1186 16.9706 13.8579 16.7093 13.5362 16.7093C13.2146 16.7093 12.9539 16.9706 12.9539 17.2929C12.9539 17.6152 13.2146 17.8765 13.5362 17.8765Z" fill="#452B4E"/>
<path d="M18.8194 17.8765C19.1411 17.8765 19.4018 17.6152 19.4018 17.2929C19.4018 16.9706 19.1411 16.7093 18.8194 16.7093C18.4978 16.7093 18.2371 16.9706 18.2371 17.2929C18.2371 17.6152 18.4978 17.8765 18.8194 17.8765Z" fill="#452B4E"/>
<path d="M15.1173 17.0428L13.9109 20.3777L16.074 20.7112" stroke="#452B4E" stroke-width="0.5" stroke-miterlimit="10"/>
<path d="M16.2813 23.0039C15.9901 24.0461 14.867 24.6714 13.7438 24.3379C12.6206 24.0461 11.9966 22.9205 12.2878 21.8784" stroke="#452B4E" stroke-width="0.5" stroke-miterlimit="10"/>
<path d="M16.2817 29.0901C16.2817 29.0901 18.8193 29.7571 20.3168 28.5482" stroke="#452B4E" stroke-width="0.5" stroke-miterlimit="10"/>
<path d="M27.9712 18.085L24.8513 19.6691L27.3473 20.2527" stroke="#452B4E" stroke-width="0.5" stroke-miterlimit="10"/>
</g>
</svg>
