<svg width="25" height="24" viewBox="0 0 25 24" fill="none" xmlns="http://www.w3.org/2000/svg">
<circle cx="13" cy="12" r="12" fill="#64D69A"/>
<mask id="mask0_31_6769" style="mask-type:alpha" maskUnits="userSpaceOnUse" x="0" y="-1" width="25" height="25">
<circle cx="12.6923" cy="11.6923" r="11.8077" fill="#C4C4C4" stroke="black"/>
</mask>
<g mask="url(#mask0_31_6769)">
<path d="M5.72616 21.0159L-3.74062 40.3586C-3.74062 40.3586 -5.84435 47.3283 2.93872 46.8845L29.5772 29.2907L26.4479 22.7648L23.9497 24.1222L15.4033 19.3192H10.4596L6.72543 19.3975L5.72616 21.0159Z" fill="#FF805D"/>
<path d="M18.5063 7.23322L21.1622 18.9537H14.4303V17.4919L18.5063 7.23322Z" fill="#452B4E"/>
<path d="M14.4305 17.4919C17.4368 17.4919 19.8739 15.0727 19.8739 12.0885C19.8739 9.10426 17.4368 6.68506 14.4305 6.68506C11.4242 6.68506 8.98706 9.10426 8.98706 12.0885C8.98706 15.0727 11.4242 17.4919 14.4305 17.4919Z" fill="#FFBD66"/>
<path d="M15.4032 10.5222C17.2331 10.5222 18.7166 9.04969 18.7166 7.2332C18.7166 5.41671 17.2331 3.94415 15.4032 3.94415C13.5733 3.94415 12.0898 5.41671 12.0898 7.2332C12.0898 9.04969 13.5733 10.5222 15.4032 10.5222Z" fill="#FFBD66"/>
<path d="M13.1418 21.564H12.6948C11.4589 21.564 10.4596 20.5721 10.4596 19.3452V12.8455C10.4596 11.6186 11.4589 10.6266 12.6948 10.6266H13.1418C14.3778 10.6266 15.3771 11.6186 15.3771 12.8455V19.3191C15.4034 20.546 14.3778 21.564 13.1418 21.564Z" fill="#FFBD66"/>
<path d="M16.5867 4.30962L13.2733 7.88581L13.7204 19.3975H6.69918C6.69918 19.3975 2.33394 17.8574 4.201 13.9157C6.06806 9.97409 8.11919 4.91 8.11919 4.91C8.11919 4.91 11.3011 -0.362915 16.613 2.92613C16.613 2.92613 18.3223 3.94417 18.3749 5.77142L16.5867 4.30962Z" fill="#452B4E"/>
<path d="M13.694 26.4977L11.5377 30.8831L26.4479 22.791" stroke="#452B4E" stroke-miterlimit="10"/>
<path d="M15.4033 19.3192C15.4033 19.3192 19.6634 21.7468 19.4267 26.602" stroke="#452B4E" stroke-miterlimit="10"/>
<path d="M5.04243 45.501C5.04243 45.501 4.5165 51.5309 15.377 51.0872C15.377 51.0872 25.3171 51.0872 31.339 45.0834V53.6714H44.6451L43.6196 32.1621C43.6196 32.1621 42.0418 21.538 32.5487 26.1583L5.04243 45.501Z" fill="#64D69A"/>
<path d="M16.3239 9.42591C16.5708 9.42591 16.7709 9.22723 16.7709 8.98215C16.7709 8.73707 16.5708 8.53839 16.3239 8.53839C16.077 8.53839 15.8768 8.73707 15.8768 8.98215C15.8768 9.22723 16.077 9.42591 16.3239 9.42591Z" fill="#452B4E"/>
<path d="M19.1111 9.42591C19.358 9.42591 19.5581 9.22723 19.5581 8.98215C19.5581 8.73707 19.358 8.53839 19.1111 8.53839C18.8642 8.53839 18.6641 8.73707 18.6641 8.98215C18.6641 9.22723 18.8642 9.42591 19.1111 9.42591Z" fill="#452B4E"/>
<path d="M17.7174 8.87775L18.927 10.8616L17.9541 11.9319" stroke="#452B4E" stroke-width="0.7" stroke-miterlimit="10"/>
<path d="M16.0079 13.1065H18.6902C18.6902 13.1065 17.8487 15.3514 16.0079 13.1065Z" fill="#FAF3EB"/>
<mask id="mask1_31_6769" style="mask-type:alpha" maskUnits="userSpaceOnUse" x="5" y="25" width="40" height="29">
<path d="M5.09907 45.5688C5.09907 45.5688 4.57314 51.5987 15.4336 51.155C15.4336 51.155 25.3738 51.155 31.3957 45.1512V53.7392H44.7018L43.6762 32.2299C43.6762 32.2299 42.0984 21.6058 32.6053 26.2261L5.09907 45.5688Z" fill="#64D69A"/>
</mask>
<g mask="url(#mask1_31_6769)">
</g>
</g>
</svg>
