<svg width="42" height="40" viewBox="0 0 42 40" fill="none" xmlns="http://www.w3.org/2000/svg">
<circle cx="22" cy="20" r="20" fill="#64D69A"/>
<mask id="mask0_31_4759" style="mask-type:alpha" maskUnits="userSpaceOnUse" x="0" y="-2" width="42" height="42">
<circle cx="21.4872" cy="19.4872" r="20.5128" fill="#C4C4C4"/>
</mask>
<g mask="url(#mask0_31_4759)">
<path d="M9.87673 35.0264L-5.90123 67.2643C-5.90123 67.2643 -9.40745 78.8804 5.231 78.1408L49.6284 48.8178L44.4129 37.9413L40.2493 40.2036L26.0053 32.1986H17.7657L11.5422 32.3291L9.87673 35.0264Z" fill="#FF805D"/>
<path d="M31.1768 12.0553L35.6034 31.5895H24.3835V29.1531L31.1768 12.0553Z" fill="#452B4E"/>
<path d="M24.3839 29.1531C29.3944 29.1531 33.4562 25.1211 33.4562 20.1474C33.4562 15.1737 29.3944 11.1417 24.3839 11.1417C19.3733 11.1417 15.3115 15.1737 15.3115 20.1474C15.3115 25.1211 19.3733 29.1531 24.3839 29.1531Z" fill="#FFBD66"/>
<path d="M26.0052 17.5371C29.0551 17.5371 31.5275 15.0828 31.5275 12.0553C31.5275 9.02782 29.0551 6.57356 26.0052 6.57356C22.9553 6.57356 20.4829 9.02782 20.4829 12.0553C20.4829 15.0828 22.9553 17.5371 26.0052 17.5371Z" fill="#FFBD66"/>
<path d="M22.2363 35.94H21.4912C19.4313 35.94 17.7659 34.2868 17.7659 32.242V21.4091C17.7659 19.3643 19.4313 17.7111 21.4912 17.7111H22.2363C24.2962 17.7111 25.9616 19.3643 25.9616 21.4091V32.1985C26.0055 34.2433 24.2962 35.94 22.2363 35.94Z" fill="#FFBD66"/>
<path d="M27.9777 7.18264L22.4554 13.1429L23.2005 32.3291H11.4985C11.4985 32.3291 4.22307 29.7622 7.33484 23.1928C10.4466 16.6234 13.8652 8.18327 13.8652 8.18327C13.8652 8.18327 19.1683 -0.604921 28.0215 4.87682C28.0215 4.87682 30.8703 6.57356 30.958 9.61897L27.9777 7.18264Z" fill="#452B4E"/>
<path d="M23.1564 44.1627L19.5625 51.4717L44.4128 37.9848" stroke="#452B4E" stroke-miterlimit="10"/>
<path d="M26.0054 32.1986C26.0054 32.1986 33.1055 36.2446 32.711 44.3367" stroke="#452B4E" stroke-miterlimit="10"/>
<path d="M8.73706 75.835C8.73706 75.835 7.86051 85.8848 25.9613 85.1452C25.9613 85.1452 42.5282 85.1452 52.5647 75.1389V89.4523H74.7415L73.0323 53.6034C73.0323 53.6034 70.4026 35.8965 54.5808 43.5971L8.73706 75.835Z" fill="#64D69A"/>
<path d="M27.5395 15.7098C27.951 15.7098 28.2846 15.3787 28.2846 14.9702C28.2846 14.5617 27.951 14.2306 27.5395 14.2306C27.128 14.2306 26.7944 14.5617 26.7944 14.9702C26.7944 15.3787 27.128 15.7098 27.5395 15.7098Z" fill="#452B4E"/>
<path d="M32.185 15.7098C32.5965 15.7098 32.9301 15.3787 32.9301 14.9702C32.9301 14.5617 32.5965 14.2306 32.185 14.2306C31.7735 14.2306 31.4399 14.5617 31.4399 14.9702C31.4399 15.3787 31.7735 15.7098 32.185 15.7098Z" fill="#452B4E"/>
<path d="M29.8623 14.7962L31.8784 18.1026L30.2568 19.8864" stroke="#452B4E" stroke-width="0.7" stroke-miterlimit="10"/>
<path d="M27.0132 21.8441H31.4836C31.4836 21.8441 30.0811 25.5856 27.0132 21.8441Z" fill="#FAF3EB"/>
<mask id="mask1_31_4759" style="mask-type:alpha" maskUnits="userSpaceOnUse" x="8" y="41" width="67" height="49">
<path d="M8.83154 75.948C8.83154 75.948 7.95499 85.9978 26.0558 85.2582C26.0558 85.2582 42.6227 85.2582 52.6592 75.2519V89.5653H74.836L73.1267 53.7165C73.1267 53.7165 70.4971 36.0095 54.6753 43.7101L8.83154 75.948Z" fill="#64D69A"/>
</mask>
<g mask="url(#mask1_31_4759)">
</g>
</g>
</svg>
