<svg width="40" height="40" viewBox="0 0 40 40" fill="none" xmlns="http://www.w3.org/2000/svg">
<circle cx="20" cy="20" r="20" fill="#8F8095"/>
<mask id="mask0_31_5120" style="mask-type:alpha" maskUnits="userSpaceOnUse" x="0" y="0" width="40" height="40">
<circle cx="20" cy="20" r="20" fill="#64D69A"/>
</mask>
<g mask="url(#mask0_31_5120)">
<path d="M33.1751 34.515C40.5363 34.515 46.5037 28.5475 46.5037 21.1864C46.5037 13.8252 40.5363 7.85773 33.1751 7.85773C25.8139 7.85773 19.8464 13.8252 19.8464 21.1864C19.8464 28.5475 25.8139 34.515 33.1751 34.515Z" fill="#452B4E"/>
<path d="M19.3528 27.7026C19.3528 27.7026 15.5517 27.3076 11.9974 34.12L3.01294 43.4994L6.36978 62.2582L11.0595 47.0044L35.9396 50.4599L40.8267 54.9028L53.2174 42.6602C53.2174 42.6602 29.4727 24.2964 26.6589 26.2216C23.8451 28.1468 19.3528 27.7026 19.3528 27.7026Z" fill="#FF545C"/>
<path d="M11.0595 47.0537L32.1878 27.9494L39.5926 32.6391L35.1497 39.7971L35.3472 47.3499L42.5052 83.2879L47.1455 143.02H-18.4609L11.0595 47.0537Z" fill="#FFBD66"/>
<path d="M16.1934 16.2498C18.5108 16.2498 20.3894 14.3712 20.3894 12.0538C20.3894 9.73636 18.5108 7.85773 16.1934 7.85773C13.8759 7.85773 11.9973 9.73636 11.9973 12.0538C11.9973 14.3712 13.8759 16.2498 16.1934 16.2498Z" fill="#FF805D"/>
<path d="M18.1679 25.0368C22.0939 25.0368 25.2765 21.8542 25.2765 17.9282C25.2765 14.0023 22.0939 10.8196 18.1679 10.8196C14.242 10.8196 11.0593 14.0023 11.0593 17.9282C11.0593 21.8542 14.242 25.0368 18.1679 25.0368Z" fill="#FF805D"/>
<path d="M22.858 17.9282C24.9573 17.9282 26.6591 16.2264 26.6591 14.1271C26.6591 12.0278 24.9573 10.326 22.858 10.326C20.7587 10.326 19.0569 12.0278 19.0569 14.1271C19.0569 16.2264 20.7587 17.9282 22.858 17.9282Z" fill="#FF805D"/>
<path d="M24.5359 30.0227C22.4625 30.8126 20.1424 29.7759 19.3525 27.7026L15.7982 18.5206C15.0084 16.4473 16.045 14.1271 18.1184 13.3373C20.1917 12.5474 22.5119 13.5841 23.3017 15.6574L26.856 24.8394C27.6459 26.8634 26.6092 29.2329 24.5359 30.0227Z" fill="#FF805D"/>
<path d="M14.5149 8.20328C14.5149 8.20328 18.8097 9.48678 19.0565 13.6335C19.0565 13.6335 22.4627 9.68424 25.3259 11.2146C25.2765 11.2146 20.7843 2.23009 14.5149 8.20328Z" fill="#452B4E"/>
<path d="M39.5926 32.6391L-15.0054 131.666" stroke="#452B4E" stroke-miterlimit="10"/>
<path d="M-6.36694 103.676L36.8277 30.9113" stroke="#452B4E" stroke-miterlimit="10"/>
<path d="M3.01294 73.2667L34.7054 29.5291" stroke="#452B4E" stroke-miterlimit="10"/>
<path d="M3.01263 43.5488L-3.50358 51.3979L-9.13123 36.144C-9.13123 36.144 -7.35408 21.6306 -10.1185 16.2498C-12.883 10.869 -14.7095 10.326 -14.0678 14.6208C-13.426 18.9155 -13.0804 21.137 -13.0804 21.137C-13.0804 21.137 -16.3386 10.9677 -18.4613 13.6335C-20.584 16.2992 -16.5854 23.4078 -16.5854 23.4078L-20.9789 19.0143C-20.9789 19.0143 -25.4711 18.1257 -22.8548 22.3217C-20.2384 26.5178 -19.4486 27.6038 -21.0776 32.6391C-22.7067 37.6744 -19.3005 41.0806 -19.3005 41.0806L-7.99582 67.2935C-7.99582 67.2935 -3.94787 73.2667 2.42025 68.3302L6.36947 62.357L3.01263 43.5488Z" fill="#FF805D"/>
<path d="M18.168 25.0368C18.168 25.0368 21.9691 24.5926 22.5121 23.4572" stroke="#452B4E" stroke-width="0.4" stroke-miterlimit="10"/>
<path d="M13.577 14.7195L11.9973 16.9903L13.577 17.9282" stroke="#452B4E" stroke-width="0.4" stroke-miterlimit="10"/>
<path d="M12.9841 20.051C13.6259 20.6927 14.86 20.594 15.6499 19.7548" stroke="#452B4E" stroke-width="0.5" stroke-miterlimit="10"/>
<path d="M11.9971 15.2625C12.297 15.2625 12.5401 15.0194 12.5401 14.7195C12.5401 14.4196 12.297 14.1765 11.9971 14.1765C11.6972 14.1765 11.4541 14.4196 11.4541 14.7195C11.4541 15.0194 11.6972 15.2625 11.9971 15.2625Z" fill="#452B4E"/>
<path d="M16.3416 15.8055C16.6415 15.8055 16.8846 15.5624 16.8846 15.2625C16.8846 14.9626 16.6415 14.7195 16.3416 14.7195C16.0417 14.7195 15.7986 14.9626 15.7986 15.2625C15.7986 15.5624 16.0417 15.8055 16.3416 15.8055Z" fill="#452B4E"/>
<path d="M23.8942 13.2879L23.4993 14.7195" stroke="#452B4E" stroke-miterlimit="10"/>
<path d="M22.8574 30.2696V36.3908" stroke="#452B4E" stroke-miterlimit="10"/>
<path d="M14.0212 37.9705C14.0212 37.9705 13.3301 41.278 11.9973 43.0058C10.6644 44.7336 11.1087 47.0538 11.1087 47.0538" stroke="#452B4E" stroke-miterlimit="10"/>
</g>
</svg>
