<svg width="40" height="40" viewBox="0 0 40 40" fill="none" xmlns="http://www.w3.org/2000/svg">
<circle cx="20" cy="20" r="20" fill="#FF9980"/>
<mask id="mask0_31_4857" style="mask-type:alpha" maskUnits="userSpaceOnUse" x="0" y="0" width="40" height="40">
<circle cx="20" cy="20" r="20" fill="#64D69A"/>
</mask>
<g mask="url(#mask0_31_4857)">
<path d="M26.6523 34.4095L32.1551 32.8078H54.7666L62.5706 16.8908C62.5706 16.8908 70.4747 10.9344 75.5272 21.5958L66.5727 44.22C66.5727 44.22 64.3716 49.3756 55.6671 48.4746L46.0122 48.6748V63.9411L98.1388 135.017L71.4752 143.476L37.5579 96.2257L31.0045 109.89L42.8106 139.472L21.5997 147.531L13.0454 113.244C12.1949 109.79 12.1449 106.186 12.8953 102.733L17.8979 80.5589L15.1465 61.5386L8.44303 67.5951L15.1965 67.6952V82.7112L-8.76574 82.8113C-8.76574 82.8113 -21.9725 79.9082 -13.6682 68.2458L14.296 40.7163L26.6523 34.4095Z" fill="#9DA2FF"/>
<path d="M19.4485 39.3148L29.6037 58.5854L29.7037 36.5118L19.4485 39.3148Z" fill="#FAF3EB"/>
<path d="M13.1458 26.3509C15.7428 26.3509 17.8482 24.2444 17.8482 21.6459C17.8482 19.0474 15.7428 16.9409 13.1458 16.9409C10.5487 16.9409 8.44336 19.0474 8.44336 21.6459C8.44336 24.2444 10.5487 26.3509 13.1458 26.3509Z" fill="#452B4E"/>
<path d="M20.6245 22.0504C24.2315 20.2435 26.1327 16.7347 24.8711 14.2134C23.6094 11.692 19.6626 11.1129 16.0556 12.9198C12.4487 14.7267 10.5474 18.2354 11.8091 20.7568C13.0708 23.2781 17.0176 23.8573 20.6245 22.0504Z" fill="#FFBD66"/>
<path d="M13.1453 29.3541C15.7147 29.3541 17.7977 27.27 17.7977 24.6991C17.7977 22.1283 15.7147 20.0442 13.1453 20.0442C10.5759 20.0442 8.49292 22.1283 8.49292 24.6991C8.49292 27.27 10.5759 29.3541 13.1453 29.3541Z" fill="#FFBD66"/>
<path d="M25.9103 32.6107C29.789 30.6676 31.2488 25.7259 29.1708 21.5731C27.0927 17.4203 22.2638 15.6289 18.3851 17.572C14.5064 19.5151 13.0466 24.4567 15.1247 28.6095C17.2027 32.7623 22.0316 34.5537 25.9103 32.6107Z" fill="#FFBD66"/>
<path d="M26.4025 42.318C23.6511 43.4192 20.5495 42.0677 19.4489 39.3148L13.8461 25.1496C12.7455 22.3967 14.0962 19.2934 16.8476 18.1922C19.599 17.091 22.7006 18.4424 23.8012 21.1954L29.404 35.3606C30.5046 38.1135 29.1539 41.2168 26.4025 42.318Z" fill="#FFBD66"/>
<path d="M21.9001 14.5383C24.4972 14.5383 26.6025 12.4318 26.6025 9.83324C26.6025 7.23472 24.4972 5.1282 21.9001 5.1282C19.3031 5.1282 17.1978 7.23472 17.1978 9.83324C17.1978 12.4318 19.3031 14.5383 21.9001 14.5383Z" fill="#452B4E"/>
<path d="M16.447 16.3402C19.0441 16.3402 21.1494 14.2337 21.1494 11.6352C21.1494 9.03665 19.0441 6.93013 16.447 6.93013C13.85 6.93013 11.7446 9.03665 11.7446 11.6352C11.7446 14.2337 13.85 16.3402 16.447 16.3402Z" fill="#452B4E"/>
<path d="M12.4453 20.4446C15.0424 20.4446 17.1477 18.3381 17.1477 15.7396C17.1477 13.141 15.0424 11.0345 12.4453 11.0345C9.84826 11.0345 7.74292 13.141 7.74292 15.7396C7.74292 18.3381 9.84826 20.4446 12.4453 20.4446Z" fill="#452B4E"/>
<path d="M15.5471 19.3434C15.5471 19.3434 14.1464 21.6959 14.6467 23.0474L10.3445 20.0442L15.5471 19.3434Z" fill="#452B4E"/>
<path d="M16.4471 39.6151L15.5466 46.6226L18.3481 47.5736L17.1975 50.8271L31.3547 65.9933L37.5579 43.4192L35.0566 41.6673L37.5579 39.7653L33.906 32.8078" stroke="#452B4E" stroke-miterlimit="10"/>
<path d="M22.1499 26.4009C22.1499 26.9515 23.5506 27.402 25.2515 27.402" stroke="#452B4E" stroke-width="0.5" stroke-miterlimit="10"/>
<path d="M25.4022 17.992C25.8719 17.992 26.2526 17.611 26.2526 17.1411C26.2526 16.6711 25.8719 16.2902 25.4022 16.2902C24.9325 16.2902 24.5518 16.6711 24.5518 17.1411C24.5518 17.611 24.9325 17.992 25.4022 17.992Z" fill="#452B4E"/>
<path d="M19.4491 21.3455C19.9187 21.3455 20.2995 20.9646 20.2995 20.4946C20.2995 20.0247 19.9187 19.6437 19.4491 19.6437C18.9794 19.6437 18.5986 20.0247 18.5986 20.4946C18.5986 20.9646 18.9794 21.3455 19.4491 21.3455Z" fill="#452B4E"/>
<path d="M27.8531 31.2061C27.753 32.3073 24.7014 32.958 21.0996 32.6076" stroke="#452B4E" stroke-width="0.5" stroke-miterlimit="10"/>
<path d="M23.1003 19.7439L25.5016 21.746L24.8512 23.2977" stroke="#452B4E" stroke-width="0.5" stroke-miterlimit="10"/>
<path d="M19.7988 23.7982C21.6222 23.7982 23.1004 22.3191 23.1004 20.4947C23.1004 18.6702 21.6222 17.1911 19.7988 17.1911C17.9753 17.1911 16.4971 18.6702 16.4971 20.4947C16.4971 22.3191 17.9753 23.7982 19.7988 23.7982Z" stroke="#452B4E" stroke-width="0.5" stroke-miterlimit="10"/>
<path d="M26.652 20.2444C28.4755 20.2444 29.9537 18.7653 29.9537 16.9408C29.9537 15.1163 28.4755 13.6373 26.652 13.6373C24.8286 13.6373 23.3503 15.1163 23.3503 16.9408C23.3503 18.7653 24.8286 20.2444 26.652 20.2444Z" stroke="#452B4E" stroke-width="0.5" stroke-miterlimit="10"/>
<path d="M21.8999 17.6416C21.8999 17.2412 22.5502 16.9409 23.3506 16.9409" stroke="#452B4E" stroke-width="0.5" stroke-miterlimit="10"/>
<path d="M16.4977 20.4946L14.6968 22.9973" stroke="#452B4E" stroke-width="0.5" stroke-miterlimit="10"/>
</g>
</svg>
